PathFileType	4	(X/Y/Z)	C:/Users/beibeiliu/ov580/test_trc\sequence.4_training_dense_right.trc
DataRate	CameraRate	NumFrames	NumMarkers	Units	OrigDataRate	OrigDataStartFrame	OrigNumFrames
120	120	25	19	mm	120	36	71
Frame#	Time	ThumbCMC			ThumbMCP			ThumbIP			ThumbTip			IndexMCP			IndexPIP			IndexTip			MiddleMCP			MiddlePIP			MiddleTip			RingMCP			RingPIP			RingTip			PinkyMCP			PinkyPIP			PinkyTip			BackHand1			BackHand2			BackHand3	
		X0	Y0	Z0	X1	Y1	Z1	X2	Y2	Z2	X3	Y3	Z3	X4	Y4	Z4	X5	Y5	Z5	X6	Y6	Z6	X7	Y7	Z7	X8	Y8	Z8	X9	Y9	Z9	X10	Y10	Z10	X11	Y11	Z11	X12	Y12	Z12	X13	Y13	Z13	X14	Y14	Z14	X15	Y15	Z15	X16	Y16	Z16	X17	Y17	Z17	X18	Y18	Z18	
35	0.291667	69.1349	13.1973	110.103	39.3585	-2.48509	92.8095	26.5968	-16.9575	75.6678	39.6169	-37.9605	60.448	51.2481	-8.40813	42.1571	39.3421	-28.8859	56.3634	54.3082	-15.8015	83.0506	64.0922	-28.8581	42.2981	48.3592	-43.6467	64.6174	67.0408	-26.6124	91.7457	77.8592	-43.5985	53.0592	59.9982	-46.9838	79.5234	81.0515	-25.3426	98.1637	85.7425	-50.9974	62.7757	74.3433	-52.4266	85.9146	88.953	-27.6558	103.082	118.175	-7.80866	74.2804	128.16	-1.31321	106.349	103.018	16.0415	88.7956	
36	0.3	78.0869	33.1118	100.022	47.809	30.884	90.1296	28.1124	18.9086	66.759	28.8997	-5.34605	56.8625	56.7695	10.1977	37.6851	32.2035	4.44967	53.7828	54.177	5.86084	78.5482	56.8456	-6.87177	40.6315	36.5573	-14.1541	61.4725	57.822	0.105709	90.9288	62.6283	-26.0139	52.3438	45.7033	-22.1794	79.4625	70.7193	-8.17836	95.8717	70.5378	-40.2189	63.3125	55.1921	-30.8223	91.1312	73.5062	-15.0381	104.415	112.574	-12.5961	74.0069	124.025	-5.93602	99.5964	111.345	19.2529	87.0807	
37	0.308333	100.133	42.5241	97.7818	70.9125	54.5614	81.5511	49.0985	48.2063	57.3595	41.1304	23.3655	48.5226	76.1027	26.3274	32.7469	49.0697	27.1997	44.5083	67.8395	30.0882	73.7652	68.2285	7.30003	34.9354	44.4784	10.196	55.4727	67.1035	15.2603	85.431	65.3612	-9.8019	46.5937	48.7487	2.5133	72.9461	73.1198	8.49023	91.2622	64.1918	-23.9603	60.1384	53.4532	-9.10546	84.9442	79.1641	0.224697	100.05	117.151	-15.5961	73.5565	127.18	-14.111	99.4674	123.812	16.5107	79.1859	
38	0.316667	124.917	43.5338	93.6711	100.993	59.7476	73.6315	81.5042	58.5323	48.5155	67.0404	40.3988	39.1906	99.7621	30.5572	25.3767	76.3678	41.6864	37.6312	92.9652	35.8053	66.4042	89.964	10.331	29.8029	66.9828	26.7179	43.9084	85.2703	29.0609	78.1136	79.488	1.89648	40.1853	63.0727	14.1213	60.6336	87.8761	17.3572	84.8426	77.4316	-14.5622	53.7169	63.2235	1.36383	73.6272	87.3981	6.6294	93.4016	124.796	-18.1228	73.9994	134.403	-15.6384	100.099	142.51	8.77698	79.7174	
39	0.325	148.097	39.6197	90.4629	126.934	51.9221	63.7112	111.9	50.838	41.4303	96.0878	37.4838	30.8188	134.592	21.6073	24.6976	108.035	39.4772	26.265	116.558	36.0661	60.6244	116.864	8.23936	23.1693	93.0099	26.257	37.0432	107.285	25.9036	71.1354	99.7836	-3.26268	34.435	87.6525	17.5281	51.6526	108.924	15.8929	78.5912	97.3166	-13.5098	47.1805	83.1867	6.81247	64.8975	106.427	5.33496	87.8831	136.852	-28.4757	75.4652	142.5	-24.5676	106.907	160.932	-0.87722	82.1281	
40	0.333333	167.942	29.1571	87.0755	150.26	42.442	62.1492	138.728	43.4758	36.3177	123.93	24.672	23.4053	162.192	6.74675	23.1176	136.197	24.4227	21.5184	141.222	25.3273	57.5236	141.754	-8.6574	24.0147	122.483	15.3945	26.793	129.244	21.4462	64.6025	125.815	-17.2637	34.1011	112.004	9.37402	43.0534	125.161	10.0454	73.8748	114.457	-24.6765	44.4749	103.832	0.964836	57.6236	122.274	0.838369	83.7102	154.194	-35.1963	78.9229	156.226	-31.3036	110.334	174.504	-12.0065	88.8156	
41	0.341667	182.782	26.2261	89.0979	169.793	40.5249	60.9397	161.585	33.9729	32.52	147.776	15.3577	16.9604	189.05	-0.0808611	25.536	163.558	17.535	18.7799	160.774	24.5516	50.7282	168.57	-13.1992	23.1403	145.489	7.38865	25.4327	149.307	15.0269	62.7138	149.902	-22.1191	31.2168	136.454	2.45112	35.695	146.784	5.40398	71.6372	138.743	-32.2651	44.8366	129.71	-2.18103	51.6012	139.78	-1.10494	79.2608	172.215	-38.7965	86.6879	168.374	-29.4618	111.872	193.776	-10.3878	95.1235	
42	0.35	192.645	32.5701	89.3652	180.102	42.7652	60.4205	176.57	37.1426	29.5631	168.557	14.6304	13.3126	206.846	3.85044	26.9822	184.519	16.8025	17.5357	175.062	25.3875	48.2525	190.736	-11.7895	25.5247	167.377	5.34961	21.6887	163.743	18.4356	58.398	178.121	-19.1816	33.4308	156.324	2.18496	34.9038	161.959	11.0894	65.2093	162.72	-31.7765	44.0209	145.931	-6.57791	46.8645	157.617	1.54017	78.2633	192.793	-31.2286	90.0001	184.571	-23.5128	114.643	208.917	-1.37877	96.2653	
43	0.358333	187.346	49.5347	88.8595	174.477	49.9359	58.9168	173.36	44.7855	31.1399	174.435	24.1912	15.7767	216.516	24.2995	31.6811	186.903	32.9898	17.1336	175.63	35.0495	46.201	207.507	6.24079	30.1626	177.946	17.1088	20.4603	167.569	24.5829	53.8769	196.691	-8.62099	33.3443	167.294	6.6113	34.4478	167.317	11.2482	65.888	184.54	-23.1017	41.3117	162.352	-3.98209	45.56	167.753	4.1489	76.1838	210.817	-11.922	90.2321	200.862	-7.72685	115.27	212.497	18.2407	100.576	
44	0.366667	166.807	53.0051	84.4582	152.076	51.6672	57.7647	152.676	45.6938	29.9752	162.974	26.8331	13.1095	198.553	49.5792	23.1889	172.495	41.9263	12.9207	163.939	34.803	46.7759	199.329	28.2577	23.9742	169.691	18.9506	19.3865	160.078	24.1051	54.2689	194.883	8.09754	28.052	164.791	8.51499	33.3778	166.639	13.6478	64.7138	194.379	-5.00773	41.2192	165.615	-3.83737	46.5637	170.344	9.6898	72.6069	216.936	13.0102	83.4745	200.83	11.9276	114.714	200.857	43.6511	97.1958	
45	0.375	139.417	48.9327	82.2929	124.984	40.1392	53.2182	125.639	32.927	25.5311	144.543	15.9506	9.97085	168.932	51.5747	21.4792	144.581	33.269	11.7484	141.963	30.7921	47.0409	176.506	35.0868	19.4453	152.883	15.6166	15.5131	146.906	16.1077	53.9259	182.917	17.389	28.235	155.379	2.01693	33.579	156.045	12.4482	64.6723	187.767	-0.28197	36.6705	162.942	-6.65493	44.0236	163.991	5.59291	76.4107	198.927	33.897	79.1482	193.201	28.0465	111.623	175.16	57.9474	87.721	
46	0.383333	111.947	32.8853	83.1164	103.314	14.9999	58.8996	105.013	2.79277	29.2557	124.967	-5.86419	19.2648	131.776	35.751	18.4796	123.257	6.86976	15.9433	125.147	12.7039	51.4454	151.103	22.7808	18.5054	135.254	-4.85617	21.4489	133.431	1.37536	57.3084	163.178	11.3125	26.8071	144.431	-12.1578	37.738	143.8	3.75215	66.9005	176.23	-3.07769	36.2646	155.396	-17.1441	54.2702	152.565	3.40535	74.6299	180.007	37.5167	70.4846	175.785	38.7116	102.043	148.619	52.9395	83.3901	
47	0.391667	98.2044	15.7112	92.2403	85.9099	-9.52188	68.3776	88.0736	-23.6782	43.8688	113.91	-27.917	30.0847	106.596	12.621	23.4971	107.553	-19.2382	26.1841	105.254	-9.29692	57.5869	131.391	1.90692	20.9508	121.588	-26.7828	32.979	117.283	-12.1724	66.4068	146.029	-3.3883	30.333	135.585	-29.3844	48.4098	130.887	-9.80621	72.4707	160.209	-10.1565	41.0895	143.856	-26.0775	57.3535	138.279	-5.74582	79.837	157.671	35.816	70.7112	152.904	39.4615	102.855	123.117	43.1707	85.7423	
48	0.4	80.3588	3.85647	100.644	69.1795	-23.7762	83.7526	71.6119	-40.9724	57.7754	90.3262	-47.6541	43.2743	86.5871	-12.1129	29.1451	82.1964	-37.9815	37.6962	90.6276	-23.7496	68.1598	109.323	-17.4675	28.9068	101.512	-43.3979	43.3575	100.583	-25.183	76.1469	122.58	-21.5353	36.2853	117.253	-44.1434	55.5205	116.048	-16.9446	82.2435	141.834	-23.524	47.9001	131.157	-40.9278	70.3585	122.709	-15.7283	86.9837	138.001	23.7481	72.1584	139.118	31.7783	99.2143	104.991	32.2201	86.8261	
49	0.408333	68.6825	4.96204	105.934	50.5781	-21.3089	90.2396	44.6844	-39.0104	73.7031	63.8641	-51.2696	54.5613	64.2373	-15.4933	41.0208	58.5057	-41.5813	55.2686	69.188	-20.7166	78.4387	81.3745	-22.7991	38.5321	76.8029	-51.3062	58.0389	80.4183	-29.7849	84.353	99.7641	-36.7579	45.023	87.4574	-51.3016	67.3636	94.515	-22.936	90.3681	114.496	-35.896	54.4978	105.135	-48.8645	80.3329	103.247	-22.6773	95.7743	122.815	10.9049	70.2374	125.771	20.244	99.4006	95.3116	27.8432	88.9565	
50	0.416667	60.3693	19.7542	106.384	34.8717	0.821335	96.9164	24.9563	-15.0543	78.9764	36.5169	-36.0289	58.9844	46.6623	-3.17146	42.6908	33.269	-24.9657	59.3754	52.5083	-10.7332	82.699	60.1476	-21.5045	41.0634	46.3048	-37.8904	60.8389	65.0738	-21.4174	89.3237	76.3823	-36.6493	49.9844	61.7675	-44.9759	74.7249	79.0486	-19.1678	94.8944	88.8691	-41.6644	60.2979	73.5333	-43.4973	84.6436	89.6837	-21.1754	101.27	112.216	2.69059	68.1078	123.471	12.4391	96.7254	96.9974	26.8227	88.8607	
51	0.425	72.5333	40.6929	103.62	42.7507	31.3571	88.1168	27.0809	18.6902	73.6287	27.1307	-5.17702	57.865	54.221	16.3047	38.634	30.4902	3.5583	52.1928	50.0122	12.8654	79.6794	59.6133	-4.48849	40.049	34.4453	-12.8362	58.288	54.4866	2.45538	88.6773	64.1812	-25.3548	50.5231	44.4957	-19.8735	76.732	70.1879	-5.90432	94.9757	69.8715	-33.6779	61.4902	57.2907	-31.8946	85.9163	78.815	-8.48569	102.213	112.212	-4.0848	67.5792	126.774	0.104734	97.775	107.956	29.5869	83.111	
52	0.433333	94.9587	50.2331	94.3076	63.2574	54.1176	80.7153	45.6169	43.7766	62.6938	35.6835	24.6211	49.9284	68.1315	28.2921	31.4656	43.3666	30.214	47.0775	67.5786	26.7386	73.1451	66.1196	6.49945	33.6074	41.723	12.5708	51.0048	61.8704	15.3452	83.3198	62.7956	-8.11264	46.0241	46.7059	-0.385906	69.6926	73.7353	6.85307	91.2779	68.1933	-21.2675	57.9533	53.0498	-10.1637	80.5774	76.9627	0.743403	99.2125	117.15	-11.3808	68.9537	129.13	-3.13816	100.803	122.404	22.5089	80.7111	
53	0.441667	119.455	48.2752	90.5626	92.4448	62.1266	73.3604	74.2652	58.4056	55.0889	59.4034	35.5039	38.6202	97.5223	30.5109	26.4415	69.5414	36.04	34.4643	83.2514	31.7571	65.0902	89.0634	13.1425	28.241	60.2153	22.4287	45.3658	75.9651	22.6306	76.9157	76.1659	-3.85977	39.8239	60.0149	9.1286	60.8401	86.9723	15.536	84.0162	77.3249	-17.8934	53.3091	61.5395	-3.74423	73.9918	84.5809	6.49345	94.1469	127.689	-17.4689	71.8033	137.087	-12.1871	100.762	141.996	16.4461	79.1586	
54	0.45	140.769	34.9272	88.4129	119.446	49.7163	69.3023	102.46	49.3908	44.2029	88.2224	33.7581	32.5834	121.658	17.5054	20.9641	97.1421	31.6221	30.6786	106.524	28.0846	60.394	111.181	1.87054	24.5186	85.8026	18.8404	37.8422	97.1674	23.8846	68.5244	98.6772	-8.7908	35.9914	80.1251	5.57637	53.6022	100.946	10.4799	79.4273	92.2828	-20.7767	49.2326	81.2259	-1.79001	67.6632	105.228	0.750794	92.038	140.579	-27.2292	72.22	147.023	-24.5787	105.609	160.046	0.966376	79.3581	
55	0.458333	159.997	20.7308	87.2708	141.97	32.6331	61.6526	129.163	34.7775	39.8861	114.105	13.472	26.0065	151.813	-1.18381	22.1706	126.223	12.4417	23.7778	129.018	16.0753	54.8971	137.305	-17.4972	25.9191	113.383	3.08479	29.9354	121.449	11.1613	66.4547	122.198	-29.0287	37.4797	107.493	-1.43432	47.2049	120.875	-0.526719	78.1746	115.051	-35.9593	50.0476	100.202	-11.9404	63.3783	121.702	-4.53701	85.1618	156.709	-43.8327	79.8153	158.618	-34.4135	113.127	178.183	-12.1024	86.4452	
56	0.466667	179.024	12.0992	88.4415	162.762	21.9674	59.3593	154.733	17.4909	34.6494	142.474	-0.204089	19.6912	178.937	-20.5193	26.9272	158.311	-3.84523	18.5465	153.445	6.987	52.081	165.13	-34.0109	30.5392	140.88	-14.9263	26.4707	143.373	1.65087	59.9092	150.282	-40.7562	39.975	128.404	-16.9056	44.2544	139.804	-9.29694	74.3955	139.216	-46.6806	51.5061	122.328	-22.5597	58.5657	139.606	-16.0593	85.8085	172.205	-52.0704	91.6532	172.525	-40.1795	120.393	193.099	-23.6694	96.0395	
57	0.475	193.122	14.1951	91.1886	181.215	18.4507	56.6003	175.42	12.3183	29.1175	167.893	-6.50505	20.0652	208.366	-22.6115	34.0576	182.963	-10.9051	19.9058	173.404	1.64651	50.7829	190.346	-39.5829	35.9974	166.4	-18.3406	27.1499	162.92	-4.0258	58.9884	174.299	-48.2205	44.0274	154.018	-24.3883	40.6365	163.068	-9.48327	71.0829	160.435	-53.3563	51.9476	149.01	-27.6047	54.043	161.896	-16.2763	84.9359	194.417	-48.9416	97.8763	186.876	-38.8218	123.351	209.123	-21.3538	103.681	
58	0.483333	201.01	20.8857	89.8816	188.262	25.3849	58.7619	187.071	19.4683	31.6131	184.534	-6.79896	18.7038	225.993	-12.8073	38.1724	201.932	-1.56517	20.2514	186.541	8.18301	47.1923	214.471	-30.8923	39.6753	184.219	-17.45	28.0399	179.356	2.01026	59.5483	200.977	-39.505	43.7659	172.999	-23.648	41.7437	175.39	-8.33603	69.2115	185.675	-51.1081	53.6446	166.753	-27.9931	53.9255	173.568	-13.8393	83.3511	209.768	-41.0528	101.323	199.236	-28.5996	129.405	221.118	-7.71657	108.584	
59	0.491667	193.474	31.8001	88.8705	181.3	35.4058	55.3235	184.818	21.3036	30.6207	187.763	2.32811	17.5125	229.134	12.788	35.1745	203.639	9.69767	19.2723	185.475	12.3586	48.5056	222.253	-11.5416	34.1023	191.949	-7.39446	25.1502	179.266	4.41191	55.7301	212.68	-27.77	40.6998	181.964	-18.7616	38.6548	179.583	-6.43952	69.3353	204.323	-41.3436	52.5983	177.23	-27.0934	52.1663	181.465	-11.0527	78.3769	225.269	-22.5278	94.7193	209.388	-14.8581	126.481	222.731	11.1069	107.401	
